<mxfile host="Electron" modified="2024-04-10T02:33:52.349Z" agent="Mozilla/5.0 (Macintosh; Intel Mac OS X 10_15_7) AppleWebKit/537.36 (KHTML, like Gecko) draw.io/24.1.0 Chrome/120.0.6099.109 Electron/28.1.0 Safari/537.36" etag="lB-UrqB6wjX6_8TPaP4A" version="24.1.0" type="device">
  <diagram name="概要図" id="qPcCncVwvCqH0XRcG4Ns">
    <mxGraphModel dx="984" dy="649" grid="1" gridSize="10" guides="1" tooltips="1" connect="1" arrows="1" fold="1" page="1" pageScale="1" pageWidth="850" pageHeight="1100" math="0" shadow="0">
      <root>
        <mxCell id="0" />
        <mxCell id="1" parent="0" />
        <mxCell id="jnpWh6x9CTGSYw40SFA1-73" value="" style="rounded=0;whiteSpace=wrap;html=1;" parent="1" vertex="1">
          <mxGeometry x="110" y="40" width="530" height="350" as="geometry" />
        </mxCell>
        <mxCell id="jnpWh6x9CTGSYw40SFA1-1" value="Webブラウザ&lt;div&gt;[インターフェイス]&lt;/div&gt;" style="rounded=0;whiteSpace=wrap;html=1;fillColor=#fad7ac;strokeColor=#b46504;" parent="1" vertex="1">
          <mxGeometry x="260" y="80" width="120" height="40" as="geometry" />
        </mxCell>
        <mxCell id="jnpWh6x9CTGSYw40SFA1-2" value="ユーザー、グループ、スケジュール&lt;div&gt;管理&lt;br&gt;&lt;/div&gt;" style="rounded=0;whiteSpace=wrap;html=1;fillColor=#d5e8d4;strokeColor=#82b366;" parent="1" vertex="1">
          <mxGeometry x="245" y="160" width="150" height="50" as="geometry" />
        </mxCell>
        <mxCell id="jnpWh6x9CTGSYw40SFA1-8" value="" style="endArrow=classic;html=1;rounded=0;exitX=0.5;exitY=1;exitDx=0;exitDy=0;entryX=0.5;entryY=0;entryDx=0;entryDy=0;" parent="1" source="jnpWh6x9CTGSYw40SFA1-1" target="jnpWh6x9CTGSYw40SFA1-2" edge="1">
          <mxGeometry width="50" height="50" relative="1" as="geometry">
            <mxPoint x="330" y="200" as="sourcePoint" />
            <mxPoint x="310" y="160" as="targetPoint" />
          </mxGeometry>
        </mxCell>
        <mxCell id="jnpWh6x9CTGSYw40SFA1-15" value="" style="endArrow=classic;html=1;rounded=0;exitX=1;exitY=0.5;exitDx=0;exitDy=0;entryX=0;entryY=0.5;entryDx=0;entryDy=0;" parent="1" source="jnpWh6x9CTGSYw40SFA1-1" edge="1">
          <mxGeometry width="50" height="50" relative="1" as="geometry">
            <mxPoint x="380" y="180" as="sourcePoint" />
            <mxPoint x="490" y="100" as="targetPoint" />
          </mxGeometry>
        </mxCell>
        <mxCell id="jnpWh6x9CTGSYw40SFA1-22" value="グループ/ユーザーのスケジュール設定" style="rounded=1;whiteSpace=wrap;html=1;fillColor=#f0a30a;strokeColor=#BD7000;fontColor=#000000;" parent="1" vertex="1">
          <mxGeometry x="325" y="260" width="120" height="40" as="geometry" />
        </mxCell>
        <mxCell id="jnpWh6x9CTGSYw40SFA1-23" value="タスク/イベントのスケジュール設定" style="rounded=1;whiteSpace=wrap;html=1;fillColor=#f0a30a;strokeColor=#BD7000;fontColor=#000000;" parent="1" vertex="1">
          <mxGeometry x="190" y="260" width="120" height="40" as="geometry" />
        </mxCell>
        <mxCell id="jnpWh6x9CTGSYw40SFA1-71" value="設定「システム」概要図" style="text;html=1;align=center;verticalAlign=middle;whiteSpace=wrap;rounded=0;fontSize=19;" parent="1" vertex="1">
          <mxGeometry width="210" height="30" as="geometry" />
        </mxCell>
        <mxCell id="qX8ka0ETwF8BEMK1u5r_-3" value="&lt;font style=&quot;font-size: 11px;&quot;&gt;データベース&lt;/font&gt;" style="shape=cylinder3;whiteSpace=wrap;html=1;boundedLbl=1;backgroundOutline=1;size=15;fillColor=#dae8fc;strokeColor=#6c8ebf;gradientColor=#7ea6e0;" parent="1" vertex="1">
          <mxGeometry x="490" y="75" width="80" height="50" as="geometry" />
        </mxCell>
        <mxCell id="R4gjhyi0AcCUD63Kp9-k-3" value="" style="edgeStyle=elbowEdgeStyle;elbow=vertical;endArrow=classic;html=1;curved=0;rounded=0;endSize=8;startSize=8;exitX=0.5;exitY=1;exitDx=0;exitDy=0;entryX=0.5;entryY=0;entryDx=0;entryDy=0;" edge="1" parent="1" source="jnpWh6x9CTGSYw40SFA1-2" target="jnpWh6x9CTGSYw40SFA1-22">
          <mxGeometry width="50" height="50" relative="1" as="geometry">
            <mxPoint x="400" y="290" as="sourcePoint" />
            <mxPoint x="450" y="240" as="targetPoint" />
          </mxGeometry>
        </mxCell>
        <mxCell id="R4gjhyi0AcCUD63Kp9-k-4" value="" style="edgeStyle=elbowEdgeStyle;elbow=vertical;endArrow=classic;html=1;curved=0;rounded=0;endSize=8;startSize=8;entryX=0.5;entryY=0;entryDx=0;entryDy=0;" edge="1" parent="1" target="jnpWh6x9CTGSYw40SFA1-23">
          <mxGeometry width="50" height="50" relative="1" as="geometry">
            <mxPoint x="320" y="210" as="sourcePoint" />
            <mxPoint x="390" y="270" as="targetPoint" />
          </mxGeometry>
        </mxCell>
        <mxCell id="R4gjhyi0AcCUD63Kp9-k-5" value="" style="edgeStyle=segmentEdgeStyle;endArrow=classic;html=1;curved=0;rounded=0;endSize=8;startSize=8;exitX=1;exitY=0.5;exitDx=0;exitDy=0;entryX=0.5;entryY=1;entryDx=0;entryDy=0;entryPerimeter=0;" edge="1" parent="1" source="jnpWh6x9CTGSYw40SFA1-22" target="qX8ka0ETwF8BEMK1u5r_-3">
          <mxGeometry width="50" height="50" relative="1" as="geometry">
            <mxPoint x="400" y="290" as="sourcePoint" />
            <mxPoint x="520" y="130" as="targetPoint" />
          </mxGeometry>
        </mxCell>
        <mxCell id="R4gjhyi0AcCUD63Kp9-k-6" value="" style="edgeStyle=elbowEdgeStyle;elbow=vertical;endArrow=classic;html=1;curved=0;rounded=0;endSize=8;startSize=8;exitX=0.5;exitY=1;exitDx=0;exitDy=0;entryX=0.5;entryY=1;entryDx=0;entryDy=0;entryPerimeter=0;" edge="1" parent="1" source="jnpWh6x9CTGSYw40SFA1-23" target="qX8ka0ETwF8BEMK1u5r_-3">
          <mxGeometry width="50" height="50" relative="1" as="geometry">
            <mxPoint x="250" y="285" as="sourcePoint" />
            <mxPoint x="520" y="125" as="targetPoint" />
            <Array as="points">
              <mxPoint x="390" y="320" />
            </Array>
          </mxGeometry>
        </mxCell>
      </root>
    </mxGraphModel>
  </diagram>
</mxfile>
